<?xml version="1.0" encoding="iso-8859-1"?>
<!-- Generator: Adobe Illustrator 19.0.0, SVG Export Plug-In . SVG Version: 6.00 Build 0)  -->
<svg version="1.1" id="Layer_1" xmlns="http://www.w3.org/2000/svg" xmlns:xlink="http://www.w3.org/1999/xlink" x="0px" y="0px"
	 viewBox="0 0 465 465" style="enable-background:new 0 0 465 465;" xml:space="preserve">
<g>
	<g id="XMLID_43_">
		<g>
			<path style="fill:#FFD248;" d="M232.5,200c52.5,0,95,42.5,95,95s-42.5,95-95,95s-95-42.5-95-95S180,200,232.5,200z"/>
			<path style="fill:#E7ECED;" d="M292.5,10l-20,85h15c5.498,0,10,4.502,10,10v20c0,5.498-4.502,10-10,10h-110
				c-5.498,0-10-4.502-10-10v-20c0-5.498,4.502-10,10-10h15l-20-85H292.5z"/>
			<path style="fill:#AFB6BB;" d="M377.5,225v140c0,49.697-40.303,90-90,90h-110c-49.707,0-90-40.303-90-90V225
				c0-49.707,40.293-90,90-90h110C337.197,135,377.5,175.293,377.5,225z M327.5,295c0-52.5-42.5-95-95-95s-95,42.5-95,95
				s42.5,95,95,95S327.5,347.5,327.5,295z"/>
		</g>
		<g>
			<path style="fill:#231F20;" d="M307.399,126.991c0.064-0.655,0.101-1.319,0.101-1.991v-20c0-11.028-8.972-20-20-20h-2.374
				l17.108-72.71c0.699-2.974,0.002-6.103-1.896-8.499C298.442,1.396,295.555,0,292.5,0h-120c-3.055,0-5.942,1.396-7.839,3.791
				c-1.897,2.396-2.595,5.525-1.896,8.499L179.874,85H177.5c-11.028,0-20,8.972-20,20v20c0,0.672,0.036,1.336,0.101,1.991
				C111.961,136.243,77.5,176.672,77.5,225v140c0,55.141,44.859,100,100,100h110c55.141,0,100-44.859,100-100V225
				C387.5,176.672,353.039,136.243,307.399,126.991z M177.5,105h15h50V85h-42.08l-15.294-65H222.5v40h20V20h37.374l-17.108,72.71
				c-0.699,2.974-0.002,6.104,1.896,8.499c1.896,2.395,4.784,3.791,7.839,3.791h15l0.001,20H177.5V105z M367.5,365
				c0,44.112-35.888,80-80,80h-110c-44.112,0-80-35.888-80-80V225c0-44.112,35.888-80,80-80h110c44.112,0,80,35.888,80,80V365z"/>
			<path style="fill:#231F20;" d="M232.5,190c-57.898,0-105,47.102-105,105s47.102,105,105,105s105-47.103,105-105
				S290.397,190,232.5,190z M232.5,380c-46.869,0-85-38.131-85-85s38.131-85,85-85s85,38.131,85,85S279.369,380,232.5,380z"/>
			<path style="fill:#231F20;" d="M247.5,245h-5v-15h-20v15h-5c-11.028,0-20,8.972-20,20v20c0,11.028,8.972,20,20,20h15h15v20h-30
				v-10h-20v10c0,11.028,8.972,20,20,20h5v15h20v-15h5c11.028,0,20-8.972,20-20v-20c0-11.028-8.972-20-20-20h-15h-15v-20h30v10h20
				v-10C267.5,253.972,258.528,245,247.5,245z"/>
		</g>
	</g>
</g>
<g>
</g>
<g>
</g>
<g>
</g>
<g>
</g>
<g>
</g>
<g>
</g>
<g>
</g>
<g>
</g>
<g>
</g>
<g>
</g>
<g>
</g>
<g>
</g>
<g>
</g>
<g>
</g>
<g>
</g>
</svg>
